<?xml version="1.0" standalone="no"?><!DOCTYPE svg PUBLIC "-//W3C//DTD SVG 1.1//EN" "http://www.w3.org/Graphics/SVG/1.1/DTD/svg11.dtd"><svg t="1606970928748" class="icon" viewBox="0 0 1024 1024" version="1.1" xmlns="http://www.w3.org/2000/svg" p-id="1070" xmlns:xlink="http://www.w3.org/1999/xlink" width="200" height="200"><defs><style type="text/css"></style></defs><path d="M511.998969 511.998969m-511.998969 0a511.998969 511.998969 0 1 0 1023.997938 0 511.998969 511.998969 0 1 0-1023.997938 0Z" fill="#E1E6E9" p-id="1071"></path><path d="M16.00087 772.799952h992.000322v120.000338H16.00087z" fill="#FDBF5E" p-id="1072"></path><path d="M1007.99913 908.799098H16.00087c-9.600935 0-16.00087-6.399936-16.00087-16.00087V772.797889c0-9.600935 6.399936-16.00087 16.00087-16.00087h992.000322c9.600935 0 16.00087 6.399936 16.00087 16.00087v120.000339c-0.002062 8.002498-6.401998 16.00087-16.002932 16.00087zM31.999678 876.79942H992.000322v-88.000661H31.999678v88.000661z" fill="#193651" p-id="1073"></path><path d="M62.400918 131.19971h899.200226v641.600242H62.400918z" fill="#2EA2DB" p-id="1074"></path><path d="M961.599082 788.798759H62.400918c-9.600935 0-16.00087-6.399936-16.00087-16.00087V131.19971c0-9.600935 6.399936-16.00087 16.00087-16.00087H961.599082c9.600935 0 16.00087 6.399936 16.00087 16.00087v641.600242c0 8.000435-8.000435 15.998808-16.00087 15.998807zM78.399726 756.799082h867.200548V147.20058H78.399726v609.598502z" fill="#193651" p-id="1075"></path><path d="M125.760899 196.14369H896.960351v513.599468H125.760899z" fill="#FFFFFF" p-id="1076"></path><path d="M212.800435 468.799919c-6.399936 0-12.799871-4.799436-14.400371-9.600934l-36.799113-95.999033c-3.200999-8.000435 1.6005-17.599307 9.600934-20.800306 8.000435-3.200999 17.599307 1.6005 20.800306 9.600934l23.999243 62.400919 65.599855-137.599646c3.200999-4.799436 8.000435-9.600935 14.400371-9.600935h235.199178c9.600935 0 16.00087 6.399936 16.00087 16.000871 0 9.600935-6.399936 16.00087-16.00087 16.00087H304.000032l-76.799226 161.60095c-3.200999 3.196874-8.000435 7.99631-14.400371 7.99631z" fill="#193651" p-id="1077"></path><path d="M352.00058 456.000048c-6.399936-6.399936-8.000435-16.00087-1.600499-22.400805l84.799661-99.200033c6.399936-6.399936 16.00087-8.000435 22.400806-1.600499s8.000435 16.00087 1.600499 22.400806l-84.799661 99.200032c-4.801499 6.399936-14.402433 8.000435-22.400806 1.600499z" fill="#193651" p-id="1078"></path><path d="M435.199742 454.399549l-83.199162-99.200032c-6.399936-6.399936-4.799436-17.599307 1.6005-22.400806 6.399936-6.399936 17.599307-4.799436 22.400805 1.600499l83.199162 99.200033c6.399936 6.399936 4.799436 17.599307-1.600499 22.400805-6.399936 6.399936-16.00087 4.799436-22.400806-1.600499zM808.000628 331.200274l-27.200241-27.200242-27.200242 27.200242c-6.399936 6.399936-16.00087 6.399936-22.400806 0l-28.800741-27.200242-27.200242 27.200242c-3.200999 3.198937-8.000435 4.799436-11.199371 4.799436-4.799436 0-8.000435-1.6005-11.199372-4.799436l-38.399613-38.399613c-6.399936-6.399936-6.399936-16.00087 0-22.400806 6.399936-6.399936 16.00087-6.399936 22.400806 0l27.200241 27.200242 27.200242-27.200242c3.200999-3.200999 6.399936-4.799436 11.199372-4.799436 4.799436 0 8.000435 1.6005 11.199371 4.799436l27.200242 27.200242 27.200242-27.200242c6.399936-6.399936 16.00087-6.399936 22.400805 0l38.399614 38.399613c6.399936 6.399936 6.399936 16.00087 0 22.400806-3.200999 6.399936-14.400371 6.399936-20.800307 0zM819.2 425.60087h-195.199065c-9.600935 0-16.00087-6.399936-16.000871-16.00087 0-9.600935 6.399936-16.00087 16.000871-16.00087h195.199065c9.600935 0 16.00087 6.399936 16.00087 16.00087-0.002062 9.598872-6.401998 16.00087-16.00087 16.00087zM819.2 513.599468h-195.199065c-9.600935 0-16.00087-6.399936-16.000871-16.00087 0-9.600935 6.399936-16.00087 16.000871-16.00087h195.199065c9.600935 0 16.00087 6.399936 16.00087 16.00087-0.002062 8.000435-6.401998 16.00087-16.00087 16.00087zM619.199436 582.400322h31.999678v31.999678h-31.999678zM705.599597 582.400322h31.999678v31.999678h-31.999678zM791.999758 582.400322h31.999678v31.999678H791.999758zM545.599146 659.199549H192.000129c-9.600935 0-16.00087-6.399936-16.00087-16.00087s6.399936-16.00087 16.00087-16.00087h353.599017c9.600935 0 16.00087 6.399936 16.00087 16.00087s-8.000435 16.00087-16.00087 16.00087z" fill="#193651" p-id="1079"></path></svg>